<svg xmlns="http://www.w3.org/2000/svg" xmlns:xlink="http://www.w3.org/1999/xlink" viewBox="0 0 152 152"><defs><style>.cls-1{fill:none;}.cls-2{clip-path:url(#clip-path);}.cls-3{fill:#1565c0;}.cls-4{fill:#0d47a1;}.cls-5{fill:#e3f2fd;}</style><clipPath id="clip-path"><circle class="cls-1" cx="76" cy="76" r="76"/></clipPath></defs><title>icon</title><g id="Layer_2" data-name="Layer 2"><g id="Layer_1-2" data-name="Layer 1"><g class="cls-2"><circle class="cls-3" cx="76" cy="76" r="76"/><path class="cls-4" d="M48.5,107.5l57.25-7.25-2-52.75,7-9h0l41.13,41.63s.63,26.88-22.12,49.63c-20.5,21-48.25,22-48.25,22L45.25,115Z"/><path class="cls-5" d="M39.25,93.51a13.72,13.72,0,0,0,4.59,10.2v8.18a4.61,4.61,0,0,0,4.59,4.59H53a4.61,4.61,0,0,0,4.59-4.59v-4.59H94.38v4.59A4.61,4.61,0,0,0,99,116.47h4.59a4.61,4.61,0,0,0,4.59-4.59V103.7a13.72,13.72,0,0,0,4.59-10.2V47.57c0-16.08-16.45-18.38-36.75-18.38s-36.75,2.3-36.75,18.38ZM55.33,98.1a6.89,6.89,0,1,1,6.89-6.89A6.88,6.88,0,0,1,55.33,98.1Zm41.34,0a6.89,6.89,0,1,1,6.89-6.89A6.88,6.88,0,0,1,96.67,98.1Zm6.89-27.56H48.44v-23h55.13Z"/></g></g></g></svg>